<svg width="800" height="600" xmlns="http://www.w3.org/2000/svg">
  <!-- 背景 -->
  <rect width="800" height="600" fill="#f6f8fa"/>
  
  <!-- 应用窗口框架 -->
  <rect x="50" y="20" width="700" height="560" rx="10" ry="10" fill="#ffffff" stroke="#b0bfe6" stroke-width="2"/>
  
  <!-- 窗口标题栏 -->
  <rect x="50" y="20" width="700" height="40" rx="10" ry="10" fill="#2060a0"/>
  <circle cx="80" cy="40" r="8" fill="#ff6b6b"/>
  <circle cx="105" cy="40" r="8" fill="#feca57"/>
  <circle cx="130" cy="40" r="8" fill="#1dd1a1"/>
  <text x="400" y="45" font-family="Arial" font-size="16" font-weight="bold" text-anchor="middle" fill="#ffffff">Grover Quantum Search &amp; Web Information Retrieval System</text>
  
  <!-- 应用标题区域 -->
  <text x="400" y="90" font-family="Arial" font-size="24" font-weight="bold" text-anchor="middle" fill="#2060a0">Grover量子搜索与网络聚合系统</text>
  <text x="400" y="115" font-family="Arial" font-size="14" text-anchor="middle" fill="#666666">结合量子计算与经典搜索技术，提供高效的信息检索体验</text>
  
  <!-- 标签页导航 -->
  <rect x="75" y="135" width="150" height="30" rx="5" ry="5" fill="#2060a0"/>
  <text x="150" y="155" font-family="Arial" font-size="14" font-weight="bold" text-anchor="middle" fill="#ffffff">搜索与抓取</text>
  
  <rect x="230" y="135" width="150" height="30" rx="5" ry="5" fill="#e6eaf2" stroke="#b0bfe6" stroke-width="1"/>
  <text x="305" y="155" font-family="Arial" font-size="14" text-anchor="middle" fill="#666666">数据库</text>
  
  <rect x="385" y="135" width="150" height="30" rx="5" ry="5" fill="#e6eaf2" stroke="#b0bfe6" stroke-width="1"/>
  <text x="460" y="155" font-family="Arial" font-size="14" text-anchor="middle" fill="#666666">关于</text>
  
  <!-- 网络抓取区域 -->
  <rect x="75" y="175" width="650" height="150" rx="10" ry="10" fill="#f6f8fa" stroke="#b0bfe6" stroke-width="1"/>
  <text x="100" y="205" font-family="Arial" font-size="18" font-weight="bold" fill="#2060a0">网络内容抓取</text>
  
  <text x="100" y="240" font-family="Arial" font-size="14" fill="#333333">关键词:</text>
  <rect x="170" y="225" width="400" height="30" rx="8" ry="8" fill="#ffffff" stroke="#b0bfe6" stroke-width="1.5"/>
  <text x="185" y="245" font-family="Arial" font-size="14" fill="#999999">请输入搜索关键词</text>
  
  <rect x="585" y="225" width="120" height="30" rx="8" ry="8" fill="url(#blueGradient)" stroke="#2060a0" stroke-width="1"/>
  <text x="645" y="245" font-family="Arial" font-size="14" font-weight="bold" text-anchor="middle" fill="#ffffff">抓取网络内容</text>
  
  <rect x="170" y="270" width="535" height="20" rx="5" ry="5" fill="#fafdff" stroke="#b0bfe6" stroke-width="1"/>
  <rect x="170" y="270" width="250" height="20" rx="5" ry="5" fill="url(#blueGradient)"/>
  <text x="300" y="285" font-family="Arial" font-size="12" text-anchor="middle" fill="#666666">进度：47%</text>
  
  <!-- 目标搜索区域 -->
  <rect x="75" y="340" width="650" height="100" rx="10" ry="10" fill="#f6f8fa" stroke="#b0bfe6" stroke-width="1"/>
  <text x="100" y="370" font-family="Arial" font-size="18" font-weight="bold" fill="#2060a0">目标搜索</text>
  
  <text x="100" y="405" font-family="Arial" font-size="14" fill="#333333">目标:</text>
  <rect x="150" y="390" width="300" height="30" rx="8" ry="8" fill="#ffffff" stroke="#b0bfe6" stroke-width="1.5"/>
  <text x="165" y="410" font-family="Arial" font-size="14" fill="#333333">量子计算</text>
  
  <rect x="460" y="390" width="150" height="30" rx="8" ry="8" fill="#ffffff" stroke="#b0bfe6" stroke-width="1.5"/>
  <text x="535" y="410" font-family="Arial" font-size="14" text-anchor="middle" fill="#333333">Grover量子搜索</text>
  <polygon points="600,400 590,395 590,405" fill="#333333"/>
  
  <rect x="620" y="390" width="85" height="30" rx="8" ry="8" fill="url(#blueGradient)" stroke="#2060a0" stroke-width="1"/>
  <text x="662.5" y="410" font-family="Arial" font-size="14" font-weight="bold" text-anchor="middle" fill="#ffffff">搜索</text>
  
  <!-- 结果显示区域 -->
  <rect x="75" y="455" width="650" height="105" rx="10" ry="10" fill="#f6f8fa" stroke="#b0bfe6" stroke-width="1"/>
  <text x="100" y="480" font-family="Arial" font-size="18" font-weight="bold" fill="#2060a0">搜索结果</text>
  
  <rect x="540" y="465" width="70" height="25" rx="5" ry="5" fill="#3d88ee" stroke="#205eaa" stroke-width="1"/>
  <text x="575" y="482" font-family="Arial" font-size="12" font-weight="bold" text-anchor="middle" fill="#ffffff">量子搜索详情</text>
  
  <rect x="620" y="465" width="70" height="25" rx="5" ry="5" fill="#3d88ee" stroke="#205eaa" stroke-width="1"/>
  <text x="655" y="482" font-family="Arial" font-size="12" font-weight="bold" text-anchor="middle" fill="#ffffff">算法效率对比</text>
  
  <!-- 结果卡片 -->
  <rect x="85" y="495" width="630" height="55" rx="5" ry="5" fill="#f0f7ff" stroke-width="0" stroke="#2060a0"/>
  <rect x="85" y="495" width="4" height="55" fill="#2060a0" rx="2" ry="2"/>
  <text x="100" y="515" font-family="Arial" font-size="14" font-weight="bold" fill="#333333">找到匹配结果："量子计算"（量子搜索，概率：78%）</text>
  <text x="100" y="535" font-family="Arial" font-size="12" fill="#666666">量子搜索耗时: 0.024秒  |  候选项数量: 12</text>
  
  <!-- 状态栏 -->
  <rect x="50" y="560" width="700" height="20" fill="#f6f8fa"/>
  <text x="70" y="574" font-family="Arial" font-size="12" fill="#666666">数据库记录数: 58 | 就绪</text>
  
  <!-- 渐变定义 -->
  <defs>
    <linearGradient id="blueGradient" x1="0%" y1="0%" x2="0%" y2="100%">
      <stop offset="0%" style="stop-color:#4696e5;stop-opacity:1" />
      <stop offset="100%" style="stop-color:#337ecc;stop-opacity:1" />
    </linearGradient>
  </defs>
</svg>